<svg id="MACC_WEB" data-name="MACC WEB" xmlns="http://www.w3.org/2000/svg" viewBox="0 0 1048.85 303.65"><defs><style>.cls-1{stroke:#000;stroke-miterlimit:10;stroke-width:16px;}</style></defs><title>m4cc_web_TypographyLogo</title><g id="FONT_LOGO" data-name="FONT LOGO"><path d="M430.92,783.57h6.42l10.21,13.12V783.57h6.81v24.82h-6l-10.6-13.62v13.62h-6.81Z" transform="translate(-430.27 -505.23)"/><path d="M465,799.1l-9.43-15.53h7.84l5.11,9,5.14-9h7.7L471.94,799v9.4H465Z" transform="translate(-430.27 -505.23)"/><path d="M479.46,796V796a12.75,12.75,0,0,1,13.08-12.91,12.16,12.16,0,0,1,10.53,5.18l-5.18,4a6.64,6.64,0,0,0-5.42-2.91c-3.48,0-5.92,2.94-5.92,6.56V796c0,3.72,2.45,6.63,5.92,6.63,2.59,0,4.11-1.21,5.6-3l5.18,3.69A13.07,13.07,0,0,1,479.46,796Z" transform="translate(-430.27 -505.23)"/><path d="M514.24,783.57h7.27l5.92,9.61,5.92-9.61h7.27v24.82h-6.84V794.13l-6.35,9.72h-.14L521,794.2v14.18h-6.74Z" transform="translate(-430.27 -505.23)"/><path d="M544.13,783.57h20v5.85H550.93v3.76h11.92v5.43H550.93v3.94h13.33v5.85H544.13Z" transform="translate(-430.27 -505.23)"/><path d="M573,789.59H565.5v-6h21.77v6h-7.45v18.79H573Z" transform="translate(-430.27 -505.23)"/><path d="M589.4,783.57h11.74c3.79,0,6.42,1,8.08,2.7a7.7,7.7,0,0,1,2.2,5.78v.07a7.85,7.85,0,0,1-5.11,7.62l5.92,8.65h-7.94l-5-7.52h-3v7.52H589.4Zm11.42,11.92c2.34,0,3.69-1.13,3.69-2.94v-.07c0-2-1.42-2.94-3.72-2.94h-4.5v6Z" transform="translate(-430.27 -505.23)"/><path d="M613.15,796V796c0-7.13,5.74-12.91,13.4-12.91s13.33,5.71,13.33,12.84V796c0,7.13-5.75,12.91-13.41,12.91S613.15,803.18,613.15,796Zm19.72,0V796a6.45,6.45,0,0,0-6.38-6.7,6.33,6.33,0,0,0-6.28,6.63V796a6.44,6.44,0,0,0,6.35,6.7A6.33,6.33,0,0,0,632.87,796Z" transform="translate(-430.27 -505.23)"/><path d="M642.58,783.57h10.64c6.28,0,10.32,3.23,10.32,8.72v.07c0,5.85-4.5,8.94-10.67,8.94h-3.4v7.09h-6.88Zm10.14,12.34c2.45,0,3.94-1.28,3.94-3.23v-.07c0-2.13-1.49-3.26-4-3.26h-3.23v6.56Z" transform="translate(-430.27 -505.23)"/><path d="M664.7,796V796c0-7.13,5.75-12.91,13.4-12.91s13.33,5.71,13.33,12.84V796c0,7.13-5.74,12.91-13.4,12.91S664.7,803.18,664.7,796Zm19.72,0V796a6.45,6.45,0,0,0-6.38-6.7,6.33,6.33,0,0,0-6.28,6.63V796a6.44,6.44,0,0,0,6.35,6.7A6.33,6.33,0,0,0,684.42,796Z" transform="translate(-430.27 -505.23)"/><path d="M694.13,783.57H701v18.79h12v6h-18.9Z" transform="translate(-430.27 -505.23)"/><path d="M715.23,783.57h6.92v24.82h-6.92Z" transform="translate(-430.27 -505.23)"/><path d="M731.86,789.59h-7.45v-6h21.77v6h-7.45v18.79h-6.88Z" transform="translate(-430.27 -505.23)"/><path d="M753.69,783.39h6.63l10.57,25h-7.38L761.71,804h-9.58l-1.77,4.43h-7.23Zm6,15.21L757,791.55l-2.8,7.06Z" transform="translate(-430.27 -505.23)"/><path d="M772.41,783.57h6.42L789,796.69V783.57h6.81v24.82h-6l-10.6-13.62v13.62h-6.81Z" transform="translate(-430.27 -505.23)"/><path d="M816.87,783.39h6.63l10.57,25H826.7L824.89,804h-9.58l-1.77,4.43H806.3Zm6,15.21-2.77-7.06-2.8,7.06Z" transform="translate(-430.27 -505.23)"/><path d="M835.59,783.57H842l10.21,13.12V783.57H859v24.82h-6l-10.6-13.62v13.62h-6.81Z" transform="translate(-430.27 -505.23)"/><path d="M871.12,783.39h6.63l10.57,25h-7.38L879.13,804h-9.58l-1.77,4.43h-7.23Zm6,15.21-2.77-7.06-2.8,7.06Z" transform="translate(-430.27 -505.23)"/><path d="M889.83,783.57h11.74c3.79,0,6.42,1,8.08,2.7a7.7,7.7,0,0,1,2.2,5.78v.07a7.85,7.85,0,0,1-5.11,7.62l5.92,8.65h-7.94l-5-7.52h-3v7.52h-6.88Zm11.42,11.92c2.34,0,3.69-1.13,3.69-2.94v-.07c0-2-1.42-2.94-3.72-2.94h-4.5v6Z" transform="translate(-430.27 -505.23)"/><path d="M913.59,796V796a12.75,12.75,0,0,1,13.08-12.91,12.16,12.16,0,0,1,10.53,5.18l-5.18,4a6.64,6.64,0,0,0-5.42-2.91c-3.48,0-5.92,2.94-5.92,6.56V796c0,3.72,2.45,6.63,5.92,6.63,2.59,0,4.11-1.21,5.6-3l5.18,3.69A13.07,13.07,0,0,1,913.59,796Z" transform="translate(-430.27 -505.23)"/><path d="M939.44,783.57h6.88v9.29h8.83v-9.29H962v24.82h-6.88V799h-8.83v9.43h-6.88Z" transform="translate(-430.27 -505.23)"/><path d="M965.67,783.57h6.92v24.82h-6.92Z" transform="translate(-430.27 -505.23)"/><path d="M974.36,804.7l3.83-4.58a12.78,12.78,0,0,0,8,3c1.84,0,2.84-.64,2.84-1.7v-.07c0-1-.82-1.6-4.18-2.38-5.28-1.21-9.36-2.7-9.36-7.8v-.07c0-4.61,3.65-7.94,9.61-7.94a15.62,15.62,0,0,1,10.21,3.3l-3.44,4.86a12.45,12.45,0,0,0-7-2.45c-1.67,0-2.48.71-2.48,1.6v.07c0,1.13.85,1.63,4.29,2.41,5.71,1.24,9.26,3.08,9.26,7.73v.07c0,5.07-4,8.09-10,8.09A17.34,17.34,0,0,1,974.36,804.7Z" transform="translate(-430.27 -505.23)"/><path d="M1003.82,789.59h-7.45v-6h21.77v6h-7.45v18.79h-6.88Z" transform="translate(-430.27 -505.23)"/><path d="M1028.35,796V796a12.75,12.75,0,0,1,13.08-12.91,12.16,12.16,0,0,1,10.53,5.18l-5.18,4a6.64,6.64,0,0,0-5.42-2.91c-3.48,0-5.92,2.94-5.92,6.56V796c0,3.72,2.45,6.63,5.92,6.63,2.59,0,4.11-1.21,5.6-3l5.18,3.69a13.07,13.07,0,0,1-23.79-7.23Z" transform="translate(-430.27 -505.23)"/><path d="M1052.64,796V796c0-7.13,5.74-12.91,13.4-12.91s13.33,5.71,13.33,12.84V796c0,7.13-5.75,12.91-13.41,12.91S1052.64,803.18,1052.64,796Zm19.72,0V796a6.45,6.45,0,0,0-6.38-6.7,6.33,6.33,0,0,0-6.28,6.63V796a6.44,6.44,0,0,0,6.35,6.7A6.33,6.33,0,0,0,1072.36,796Z" transform="translate(-430.27 -505.23)"/><path d="M1081.21,796V796c0-7.13,5.74-12.91,13.4-12.91s13.33,5.71,13.33,12.84V796c0,7.13-5.75,12.91-13.41,12.91S1081.21,803.18,1081.21,796Zm19.72,0V796a6.45,6.45,0,0,0-6.38-6.7,6.33,6.33,0,0,0-6.28,6.63V796a6.44,6.44,0,0,0,6.35,6.7A6.33,6.33,0,0,0,1100.93,796Z" transform="translate(-430.27 -505.23)"/><path d="M1110.64,783.57h11.74c3.79,0,6.42,1,8.08,2.7a7.7,7.7,0,0,1,2.2,5.78v.07a7.85,7.85,0,0,1-5.11,7.62l5.92,8.65h-7.94l-5-7.52h-3v7.52h-6.88Zm11.42,11.92c2.34,0,3.69-1.13,3.69-2.94v-.07c0-2-1.42-2.94-3.72-2.94h-4.5v6Z" transform="translate(-430.27 -505.23)"/><path d="M1135.25,783.57h9.58c8.87,0,14,5.11,14,12.27v.07c0,7.16-5.21,12.48-14.15,12.48h-9.43Zm9.68,18.72c4.11,0,6.84-2.27,6.84-6.28v-.07c0-4-2.73-6.28-6.84-6.28h-2.8v12.62Z" transform="translate(-430.27 -505.23)"/><path d="M1161.63,783.57h6.92v24.82h-6.92Z" transform="translate(-430.27 -505.23)"/><path d="M1172.19,783.57h6.42l10.21,13.12V783.57h6.81v24.82h-6L1179,794.77v13.62h-6.81Z" transform="translate(-430.27 -505.23)"/><path d="M1207.72,783.39h6.63l10.57,25h-7.38l-1.81-4.43h-9.58l-1.77,4.43h-7.23Zm6,15.21-2.77-7.06-2.8,7.06Z" transform="translate(-430.27 -505.23)"/><path d="M1229.31,789.59h-7.45v-6h21.77v6h-7.45v18.79h-6.88Z" transform="translate(-430.27 -505.23)"/><path d="M1245.9,783.57h6.92v24.82h-6.92Z" transform="translate(-430.27 -505.23)"/><path d="M1256.46,783.57h6.42l10.21,13.12V783.57h6.81v24.82h-6l-10.6-13.62v13.62h-6.81Z" transform="translate(-430.27 -505.23)"/><path d="M1282.56,796V796c0-7.23,5.67-12.91,13.37-12.91a14.48,14.48,0,0,1,10.07,3.62l-4,4.86a8.75,8.75,0,0,0-6-2.34,6.52,6.52,0,0,0-6.35,6.81v.07a6.56,6.56,0,0,0,6.74,6.88,7,7,0,0,0,4-1v-3h-4.89v-5h11.42v11.17a16.78,16.78,0,0,1-10.78,3.83C1288.34,808.89,1282.56,803.57,1282.56,796Z" transform="translate(-430.27 -505.23)"/><path d="M1317.87,796V796A12.75,12.75,0,0,1,1331,783.07a12.16,12.16,0,0,1,10.53,5.18l-5.18,4a6.64,6.64,0,0,0-5.42-2.91c-3.48,0-5.92,2.94-5.92,6.56V796c0,3.72,2.45,6.63,5.92,6.63,2.59,0,4.11-1.21,5.6-3l5.18,3.69a13.07,13.07,0,0,1-23.79-7.23Z" transform="translate(-430.27 -505.23)"/><path d="M1342.15,796V796c0-7.13,5.75-12.91,13.4-12.91s13.33,5.71,13.33,12.84V796c0,7.13-5.74,12.91-13.4,12.91S1342.15,803.18,1342.15,796Zm19.72,0V796a6.45,6.45,0,0,0-6.38-6.7,6.33,6.33,0,0,0-6.28,6.63V796a6.44,6.44,0,0,0,6.35,6.7A6.33,6.33,0,0,0,1361.87,796Z" transform="translate(-430.27 -505.23)"/><path d="M1371.26,797.5V783.57h7v13.79c0,3.58,1.81,5.28,4.57,5.28s4.58-1.63,4.58-5.11v-14h7v13.76c0,8-4.57,11.53-11.63,11.53S1371.26,805.27,1371.26,797.5Z" transform="translate(-430.27 -505.23)"/><path d="M1397.57,783.57H1404l10.21,13.12V783.57H1421v24.82h-6l-10.6-13.62v13.62h-6.81Z" transform="translate(-430.27 -505.23)"/><path d="M1423.66,796V796a12.75,12.75,0,0,1,13.08-12.91,12.16,12.16,0,0,1,10.53,5.18l-5.18,4a6.64,6.64,0,0,0-5.42-2.91c-3.48,0-5.92,2.94-5.92,6.56V796c0,3.72,2.45,6.63,5.92,6.63,2.59,0,4.11-1.21,5.6-3l5.18,3.69a13.07,13.07,0,0,1-23.79-7.23Z" transform="translate(-430.27 -505.23)"/><path d="M1449.65,783.57h6.92v24.82h-6.92Z" transform="translate(-430.27 -505.23)"/><path d="M1460.22,783.57h6.88v18.79h12v6h-18.9Z" transform="translate(-430.27 -505.23)"/></g><g id="MACC"><path d="M430.27,510.24h73.24l59.67,96.82,59.67-96.82h73.24v250.1h-69V616.71l-64,97.9h-1.43l-63.6-97.18V760.34H430.27Z" transform="translate(-430.27 -505.23)"/><path d="M993,636v-.71c0-72.89,56.09-130.05,131.84-130.05,51.09,0,84,21.44,106.11,52.16l-52.16,40.37c-14.29-17.86-30.73-29.3-54.67-29.3-35,0-59.67,29.65-59.67,66.1v.71c0,37.51,24.65,66.81,59.67,66.81,26.08,0,41.45-12.15,56.45-30.37l52.16,37.16c-23.58,32.51-55.38,56.45-110.76,56.45C1050.49,765.34,993,710.67,993,636Z" transform="translate(-430.27 -505.23)"/><path d="M1237.7,636v-.71c0-72.89,56.09-130.05,131.84-130.05,51.09,0,84,21.44,106.11,52.16l-52.16,40.37c-14.29-17.86-30.73-29.3-54.67-29.3-35,0-59.67,29.65-59.67,66.1v.71c0,37.51,24.65,66.81,59.67,66.81,26.08,0,41.45-12.15,56.45-30.37l52.16,37.16c-23.58,32.51-55.38,56.45-110.76,56.45C1295.22,765.34,1237.7,710.67,1237.7,636Z" transform="translate(-430.27 -505.23)"/><path class="cls-1" d="M836.33,516H850a14.55,14.55,0,0,0,1.75.33A116,116,0,0,1,911.12,537c28.1,19.62,45.15,46.41,50.9,80.27.69,4.06,1.05,8.18,1.57,12.28v13.65c-.44,3.71-.76,7.43-1.33,11.12a118.17,118.17,0,0,1-27.71,60.41q-28.62,33.09-71.86,40.46c-4.2.72-8.47,1.09-12.7,1.62H836.33l-2.35-.38c-7.1-1.18-14.32-1.9-21.28-3.62a114.28,114.28,0,0,1-47.83-25c-22.07-19.13-35.65-43.12-40.52-72-.71-4.19-1.08-8.44-1.61-12.66V629.57c.11-.64.24-1.28.34-1.93,1.1-6.91,1.73-13.94,3.36-20.72,11-45.9,50.74-82.32,97.2-89.34C827.86,516.94,832.1,516.5,836.33,516ZM907,706.47a4.26,4.26,0,0,0-.17-.71q-10.3-22-20.59-44.1c-.51-1.1-1.2-1.19-2.2-1.19q-40.92,0-81.84,0a2.26,2.26,0,0,0-2.39,1.55q-10,21.43-20,42.82a1.9,1.9,0,0,0,.5,2.7,95,95,0,0,0,111.87,10.06A86,86,0,0,0,907,706.47ZM826.87,543.55l-.52-.56c-33.83,7.45-58.1,26.67-71.42,59.07a90.21,90.21,0,0,0-6.26,41.66,94.34,94.34,0,0,0,12.61,40.59Zm98,140.35.69,0c16-30.42,17.27-61.3,1.06-92-14.23-26.93-37.14-42.68-66.73-48.82l-.45.42ZM843.16,569.37l-30.43,65.27h60.87Z" transform="translate(-430.27 -505.23)"/></g></svg>